# xmcd
#
# Track frame offsets:
# 150
# 13669
# 32686
# 49625
# 64985
# 85550
# 100813
# 117363
# 143627
# 157863
# 176927
# 193900
# 218577
#
# Disc length: 3195 seconds
#
#
# Revision: 0
# Processed by: cddbd v1.5.1PL2 Copyright (c) Steve Scherf et al.
# Submitted via: FreeRIP 2.944 
#
DISCID=aa0c790d
DTITLE=Runner - s-t
DYEAR=2003
DGENRE=Satire
TTITLE0=Fooling Myself
TTITLE1=Run For Your Life
TTITLE2=Broken Hearted Me
TTITLE3=Truly From Within
TTITLE4=Dynamite
TTITLE5=Sooner Than Later
TTITLE6=Rock n Roll Soldiers
TTITLE7=Gone Too Long
TTITLE8=Living Is Loving You
TTITLE9=Restless Wind
TTITLE10=Living In A Hard World
TTITLE11=Woman's In Love
TTITLE12=A Part of the Game
EXTD=
EXTT0=
EXTT1=
EXTT2=
EXTT3=
EXTT4=
EXTT5=
EXTT6=
EXTT7=
EXTT8=
EXTT9=
EXTT10=
EXTT11=
EXTT12=
PLAYORDER=
